  0
SECTION
  2
HEADER
  9
$ACADVER
  1
AC1009
  9
$DWGCODEPAGE
  3
ansi_1252
  9
$INSBASE
 10
0.0
 20
0.0
 30
0.0
  9
$EXTMIN
 10
271.7937583333333
 20
-468.4864265622425
 30
0.0
  9
$EXTMAX
 10
461.7938722222221
 20
-238.4862515622425
 30
0.0
  9
$LIMMIN
 10
0.0
 20
0.0
  9
$LIMMAX
 10
12.0
 20
9.0
  9
$ORTHOMODE
 70
     0
  9
$REGENMODE
 70
     1
  9
$FILLMODE
 70
     1
  9
$QTEXTMODE
 70
     0
  9
$MIRRTEXT
 70
     1
  9
$DRAGMODE
 70
     2
  9
$LTSCALE
 40
1.0
  9
$OSMODE
 70
    37
  9
$ATTMODE
 70
     1
  9
$TEXTSIZE
 40
0.2
  9
$TRACEWID
 40
0.05
  9
$TEXTSTYLE
  7
STANDARD
  9
$CLAYER
  8
PREDEFINITO
  9
$CELTYPE
  6
BYLAYER
  9
$CECOLOR
 62
   256
  9
$DIMSCALE
 40
1.0
  9
$DIMASZ
 40
0.18
  9
$DIMEXO
 40
0.0625
  9
$DIMDLI
 40
0.38
  9
$DIMRND
 40
0.0
  9
$DIMDLE
 40
0.0
  9
$DIMEXE
 40
0.18
  9
$DIMTP
 40
0.0
  9
$DIMTM
 40
0.0
  9
$DIMTXT
 40
0.18
  9
$DIMCEN
 40
0.09
  9
$DIMTSZ
 40
0.0
  9
$DIMTOL
 70
     0
  9
$DIMLIM
 70
     0
  9
$DIMTIH
 70
     1
  9
$DIMTOH
 70
     1
  9
$DIMSE1
 70
     0
  9
$DIMSE2
 70
     0
  9
$DIMTAD
 70
     0
  9
$DIMZIN
 70
     0
  9
$DIMBLK
  1

  9
$DIMASO
 70
     1
  9
$DIMSHO
 70
     1
  9
$DIMPOST
  1

  9
$DIMAPOST
  1

  9
$DIMALT
 70
     0
  9
$DIMALTD
 70
     2
  9
$DIMALTF
 40
25.4
  9
$DIMLFAC
 40
1.0
  9
$DIMTOFL
 70
     0
  9
$DIMTVP
 40
0.0
  9
$DIMTIX
 70
     0
  9
$DIMSOXD
 70
     0
  9
$DIMSAH
 70
     0
  9
$DIMBLK1
  1

  9
$DIMBLK2
  1

  9
$DIMSTYLE
  2
STANDARD
  9
$DIMCLRD
 70
     0
  9
$DIMCLRE
 70
     0
  9
$DIMCLRT
 70
     0
  9
$DIMTFAC
 40
1.0
  9
$DIMGAP
 40
0.09
  9
$LUNITS
 70
     2
  9
$LUPREC
 70
     3
  9
$SKETCHINC
 40
0.1
  9
$FILLETRAD
 40
0.5
  9
$AUNITS
 70
     0
  9
$AUPREC
 70
     0
  9
$MENU
  1
.
  9
$ELEVATION
 40
0.0
  9
$PELEVATION
 40
0.0
  9
$THICKNESS
 40
0.0
  9
$LIMCHECK
 70
     0
  9
$CHAMFERA
 40
0.0
  9
$CHAMFERB
 40
0.0
  9
$SKPOLY
 70
     0
  9
$TDCREATE
 40
2457480.475468287
  9
$TDUPDATE
 40
2457480.475506401
  9
$TDINDWG
 40
0.0000000116
  9
$TDUSRTIMER
 40
0.0000000116
  9
$USRTIMER
 70
     1
  9
$ANGBASE
 50
0.0
  9
$ANGDIR
 70
     0
  9
$PDMODE
 70
     0
  9
$PDSIZE
 40
0.0
  9
$PLINEWID
 40
0.0
  9
$COORDS
 70
     1
  9
$SPLFRAME
 70
     0
  9
$SPLINETYPE
 70
     6
  9
$SPLINESEGS
 70
     8
  9
$ATTDIA
 70
     0
  9
$ATTREQ
 70
     1
  9
$HANDLING
 70
     1
  9
$HANDSEED
  5
E8
  9
$SURFTAB1
 70
     6
  9
$SURFTAB2
 70
     6
  9
$SURFTYPE
 70
     6
  9
$SURFU
 70
     6
  9
$SURFV
 70
     6
  9
$UCSNAME
  2

  9
$UCSORG
 10
0.0
 20
0.0
 30
0.0
  9
$UCSXDIR
 10
1.0
 20
0.0
 30
0.0
  9
$UCSYDIR
 10
0.0
 20
1.0
 30
0.0
  9
$PUCSNAME
  2

  9
$PUCSORG
 10
0.0
 20
0.0
 30
0.0
  9
$PUCSXDIR
 10
1.0
 20
0.0
 30
0.0
  9
$PUCSYDIR
 10
0.0
 20
1.0
 30
0.0
  9
$USERI1
 70
     0
  9
$USERI2
 70
     0
  9
$USERI3
 70
     0
  9
$USERI4
 70
     0
  9
$USERI5
 70
     0
  9
$USERR1
 40
0.0
  9
$USERR2
 40
0.0
  9
$USERR3
 40
0.0
  9
$USERR4
 40
0.0
  9
$USERR5
 40
0.0
  9
$WORLDVIEW
 70
     1
  9
$SHADEDGE
 70
     3
  9
$SHADEDIF
 70
    70
  9
$TILEMODE
 70
     1
  9
$MAXACTVP
 70
    64
  9
$PLIMCHECK
 70
     0
  9
$PEXTMIN
 10
1.000000000000000E+20
 20
1.000000000000000E+20
 30
1.000000000000000E+20
  9
$PEXTMAX
 10
-1.000000000000000E+20
 20
-1.000000000000000E+20
 30
-1.000000000000000E+20
  9
$PLIMMIN
 10
0.0
 20
0.0
  9
$PLIMMAX
 10
12.0
 20
9.0
  9
$UNITMODE
 70
     0
  9
$VISRETAIN
 70
     1
  9
$PLINEGEN
 70
     0
  9
$PSLTSCALE
 70
     1
  0
ENDSEC
  0
SECTION
  2
TABLES
  0
TABLE
  2
VPORT
 70
     1
  0
VPORT
  2
*ACTIVE
 70
     0
 10
0.0
 20
0.0
 11
1.0
 21
1.0
 12
366.7938152777778
 22
-353.4863390622425
 13
0.0
 23
0.0
 14
0.5
 24
0.5
 15
0.5
 25
0.5
 16
0.0
 26
0.0
 36
1.0
 17
0.0
 27
0.0
 37
0.0
 40
234.6001785
 41
0.8260868231464988
 42
50.0
 43
0.0
 44
0.0
 50
0.0
 51
0.0
 71
     0
 72
   100
 73
     1
 74
     3
 75
     0
 76
     0
 77
     0
 78
     0
  0
ENDTAB
  0
TABLE
  2
LTYPE
 70
     1
  0
LTYPE
  2
CONTINUOUS
 70
     0
  3
Solid line
 72
    65
 73
     0
 40
0.0
  0
ENDTAB
  0
TABLE
  2
LAYER
 70
     2
  0
LAYER
  2
0
 70
     0
 62
     7
  6
CONTINUOUS
  0
LAYER
  2
PREDEFINITO
 70
     0
 62
     7
  6
CONTINUOUS
  0
ENDTAB
  0
TABLE
  2
STYLE
 70
     1
  0
STYLE
  2
STANDARD
 70
     0
 40
0.0
 41
1.0
 50
0.0
 71
     0
 42
0.2
  3
txt
  4

  0
ENDTAB
  0
TABLE
  2
VIEW
 70
     0
  0
ENDTAB
  0
TABLE
  2
UCS
 70
     0
  0
ENDTAB
  0
TABLE
  2
APPID
 70
     1
  0
APPID
  2
ACAD
 70
     0
  0
ENDTAB
  0
TABLE
  2
DIMSTYLE
 70
     1
  0
DIMSTYLE
  2
STANDARD
 70
     0
  3

  4

  5

  6

  7

 40
1.0
 41
0.18
 42
0.0625
 43
0.38
 44
0.18
 45
0.0
 46
0.0
 47
0.0
 48
0.0
140
0.18
141
0.09
142
0.0
143
25.4
144
1.0
145
0.0
146
1.0
147
0.09
 71
     0
 72
     0
 73
     1
 74
     1
 75
     0
 76
     0
 77
     0
 78
     0
170
     0
171
     2
172
     0
173
     0
174
     0
175
     0
176
     0
177
     0
178
     0
  0
ENDTAB
  0
ENDSEC
  0
SECTION
  2
BLOCKS
  0
BLOCK
  8
0
  2
$MODEL_SPACE
 70
     0
 10
0.0
 20
0.0
 30
0.0
  3
$MODEL_SPACE
  1

  0
ENDBLK
  5
21
  8
0
  0
BLOCK
 67
     1
  8
0
  2
$PAPER_SPACE
 70
     0
 10
0.0
 20
0.0
 30
0.0
  3
$PAPER_SPACE
  1

  0
ENDBLK
  5
1D
 67
     1
  8
0
  0
ENDSEC
  0
SECTION
  2
ENTITIES
  0
POLYLINE
  5
6F
  8
PREDEFINITO
 62
     7
 66
     1
 10
0.0
 20
0.0
 30
0.0
 70
     1
  0
VERTEX
  5
70
  8
PREDEFINITO
 62
     7
 10
461.7938722222221
 20
-468.4864265622425
 30
0.0
  0
VERTEX
  5
71
  8
PREDEFINITO
 62
     7
 10
271.7937583333333
 20
-468.4864265622425
 30
0.0
  0
VERTEX
  5
72
  8
PREDEFINITO
 62
     7
 10
271.7937583333333
 20
-238.4862515622425
 30
0.0
  0
VERTEX
  5
73
  8
PREDEFINITO
 62
     7
 10
461.7938722222221
 20
-238.4862515622425
 30
0.0
  0
SEQEND
  5
74
  8
PREDEFINITO
 62
     7
  0
CIRCLE
  5
75
  8
PREDEFINITO
 62
     7
 10
338.3603477679127
 20
-287.1511365721076
 30
0.0
 40
7.500022232161333
  0
CIRCLE
  5
76
  8
PREDEFINITO
 62
     7
 10
338.3603477679127
 20
-287.1511365721076
 30
0.0
 40
7.500022232161333
  0
CIRCLE
  5
77
  8
PREDEFINITO
 62
     7
 10
395.1275838790238
 20
-287.4658496276631
 30
0.0
 40
7.500022232161276
  0
CIRCLE
  5
78
  8
PREDEFINITO
 62
     7
 10
395.1275838790238
 20
-287.4658496276631
 30
0.0
 40
7.500022232161276
  0
POLYLINE
  5
79
  8
PREDEFINITO
 62
     7
 66
     1
 10
0.0
 20
0.0
 30
0.0
 70
     1
  0
VERTEX
  5
7A
  8
PREDEFINITO
 62
     7
 10
418.7941416666666
 20
-440.2560904511315
 30
0.0
  0
VERTEX
  5
7B
  8
PREDEFINITO
 62
     7
 10
314.7938416666667
 20
-440.2560904511315
 30
0.0
  0
VERTEX
  5
7C
  8
PREDEFINITO
 62
     7
 10
314.7938416666667
 20
-382.2562487844647
 30
0.0
  0
VERTEX
  5
7D
  8
PREDEFINITO
 62
     7
 10
418.7941416666666
 20
-382.2562487844647
 30
0.0
  0
SEQEND
  5
7E
  8
PREDEFINITO
 62
     7
  0
POLYLINE
  5
7F
  8
PREDEFINITO
 62
     7
 66
     1
 10
0.0
 20
0.0
 30
0.0
 70
     1
  0
VERTEX
  5
80
  8
PREDEFINITO
 62
     7
 10
418.7941416666666
 20
-440.2560904511315
 30
0.0
  0
VERTEX
  5
81
  8
PREDEFINITO
 62
     7
 10
314.7938416666667
 20
-440.2560904511315
 30
0.0
  0
VERTEX
  5
82
  8
PREDEFINITO
 62
     7
 10
314.7938416666667
 20
-382.2562487844647
 30
0.0
  0
VERTEX
  5
83
  8
PREDEFINITO
 62
     7
 10
418.7941416666666
 20
-382.2562487844647
 30
0.0
  0
SEQEND
  5
84
  8
PREDEFINITO
 62
     7
  0
POLYLINE
  5
85
  8
PREDEFINITO
 62
     7
 66
     1
 10
0.0
 20
0.0
 30
0.0
 70
     1
  0
VERTEX
  5
86
  8
PREDEFINITO
 62
     7
 10
368.3554566666667
 20
-339.0196632289092
 30
0.0
 42
-2.414404031086898
  0
VERTEX
  5
87
  8
PREDEFINITO
 62
     7
 10
366.8554455555555
 20
-337.5196521177983
 30
0.0
 42
-0.414246239815125
  0
SEQEND
  5
88
  8
PREDEFINITO
 62
     7
  0
POLYLINE
  5
89
  8
PREDEFINITO
 62
     7
 66
     1
 10
0.0
 20
0.0
 30
0.0
 70
     1
  0
VERTEX
  5
8A
  8
PREDEFINITO
 62
     7
 10
368.3554566666667
 20
-345.0196371177981
 30
0.0
 42
-2.414404031087321
  0
VERTEX
  5
8B
  8
PREDEFINITO
 62
     7
 10
366.8554455555555
 20
-343.519626006687
 30
0.0
 42
-0.4142462398150624
  0
SEQEND
  5
8C
  8
PREDEFINITO
 62
     7
  0
POLYLINE
  5
8D
  8
PREDEFINITO
 62
     7
 66
     1
 10
0.0
 20
0.0
 30
0.0
 70
     1
  0
VERTEX
  5
8E
  8
PREDEFINITO
 62
     7
 10
362.3554827777778
 20
-345.0196371177981
 30
0.0
 42
-2.414404031087321
  0
VERTEX
  5
8F
  8
PREDEFINITO
 62
     7
 10
360.8554716666666
 20
-343.519626006687
 30
0.0
 42
-0.4142462398150624
  0
SEQEND
  5
90
  8
PREDEFINITO
 62
     7
  0
POLYLINE
  5
91
  8
PREDEFINITO
 62
     7
 66
     1
 10
0.0
 20
0.0
 30
0.0
 70
     1
  0
VERTEX
  5
92
  8
PREDEFINITO
 62
     7
 10
362.3554827777778
 20
-339.0196632289092
 30
0.0
 42
-2.414404031087099
  0
VERTEX
  5
93
  8
PREDEFINITO
 62
     7
 10
360.8554716666666
 20
-337.5196521177981
 30
0.0
 42
-0.414246239815069
  0
SEQEND
  5
94
  8
PREDEFINITO
 62
     7
  0
POLYLINE
  5
95
  8
PREDEFINITO
 62
     7
 66
     1
 10
0.0
 20
0.0
 30
0.0
 70
     1
  0
VERTEX
  5
96
  8
PREDEFINITO
 62
     7
 10
374.3554305555555
 20
-345.0196371177981
 30
0.0
 42
-2.414404031087172
  0
VERTEX
  5
97
  8
PREDEFINITO
 62
     7
 10
372.8554194444444
 20
-343.5196260066868
 30
0.0
 42
-0.4142462398150024
  0
SEQEND
  5
98
  8
PREDEFINITO
 62
     7
  0
POLYLINE
  5
99
  8
PREDEFINITO
 62
     7
 66
     1
 10
0.0
 20
0.0
 30
0.0
 70
     1
  0
VERTEX
  5
9A
  8
PREDEFINITO
 62
     7
 10
374.3554305555555
 20
-339.0196632289092
 30
0.0
 42
-2.414404031086628
  0
VERTEX
  5
9B
  8
PREDEFINITO
 62
     7
 10
372.8554194444444
 20
-337.519652117798
 30
0.0
 42
-0.4142462398150389
  0
SEQEND
  5
9C
  8
PREDEFINITO
 62
     7
  0
POLYLINE
  5
9D
  8
PREDEFINITO
 62
     7
 66
     1
 10
0.0
 20
0.0
 30
0.0
 70
     1
  0
VERTEX
  5
9E
  8
PREDEFINITO
 62
     7
 10
368.3554566666667
 20
-351.019611006687
 30
0.0
 42
-2.414404031087263
  0
VERTEX
  5
9F
  8
PREDEFINITO
 62
     7
 10
366.8554455555555
 20
-349.5195998955758
 30
0.0
 42
-0.4142462398150338
  0
SEQEND
  5
A0
  8
PREDEFINITO
 62
     7
  0
POLYLINE
  5
A1
  8
PREDEFINITO
 62
     7
 66
     1
 10
0.0
 20
0.0
 30
0.0
 70
     1
  0
VERTEX
  5
A2
  8
PREDEFINITO
 62
     7
 10
362.3554827777778
 20
-351.019611006687
 30
0.0
 42
-2.414404031087263
  0
VERTEX
  5
A3
  8
PREDEFINITO
 62
     7
 10
360.8554716666666
 20
-349.5195998955758
 30
0.0
 42
-0.4142462398150338
  0
SEQEND
  5
A4
  8
PREDEFINITO
 62
     7
  0
POLYLINE
  5
A5
  8
PREDEFINITO
 62
     7
 66
     1
 10
0.0
 20
0.0
 30
0.0
 70
     1
  0
VERTEX
  5
A6
  8
PREDEFINITO
 62
     7
 10
356.3555088888889
 20
-351.019611006687
 30
0.0
 42
-2.414404031087062
  0
VERTEX
  5
A7
  8
PREDEFINITO
 62
     7
 10
354.8554977777778
 20
-349.5195998955759
 30
0.0
 42
-0.4142462398149755
  0
SEQEND
  5
A8
  8
PREDEFINITO
 62
     7
  0
POLYLINE
  5
A9
  8
PREDEFINITO
 62
     7
 66
     1
 10
0.0
 20
0.0
 30
0.0
 70
     1
  0
VERTEX
  5
AA
  8
PREDEFINITO
 62
     7
 10
374.3554305555555
 20
-351.019611006687
 30
0.0
 42
-2.414404031086868
  0
VERTEX
  5
AB
  8
PREDEFINITO
 62
     7
 10
372.8554194444444
 20
-349.5195998955759
 30
0.0
 42
-0.4142462398150389
  0
SEQEND
  5
AC
  8
PREDEFINITO
 62
     7
  0
POLYLINE
  5
AD
  8
PREDEFINITO
 62
     7
 66
     1
 10
0.0
 20
0.0
 30
0.0
 70
     1
  0
VERTEX
  5
AE
  8
PREDEFINITO
 62
     7
 10
380.3554397222222
 20
-351.019611006687
 30
0.0
 42
-2.414404031087283
  0
VERTEX
  5
AF
  8
PREDEFINITO
 62
     7
 10
378.8554286111111
 20
-349.5195998955758
 30
0.0
 42
-0.4142462398150064
  0
SEQEND
  5
B0
  8
PREDEFINITO
 62
     7
  0
POLYLINE
  5
B1
  8
PREDEFINITO
 62
     7
 66
     1
 10
0.0
 20
0.0
 30
0.0
 70
     1
  0
VERTEX
  5
B2
  8
PREDEFINITO
 62
     7
 10
368.3554566666667
 20
-357.0195848955759
 30
0.0
 42
-2.414404031086898
  0
VERTEX
  5
B3
  8
PREDEFINITO
 62
     7
 10
366.8554455555555
 20
-355.519573784465
 30
0.0
 42
-0.4142462398150852
  0
SEQEND
  5
B4
  8
PREDEFINITO
 62
     7
  0
POLYLINE
  5
B5
  8
PREDEFINITO
 62
     7
 66
     1
 10
0.0
 20
0.0
 30
0.0
 70
     1
  0
VERTEX
  5
B6
  8
PREDEFINITO
 62
     7
 10
362.3554827777778
 20
-357.0195848955759
 30
0.0
 42
-2.414404031087384
  0
VERTEX
  5
B7
  8
PREDEFINITO
 62
     7
 10
360.8554716666666
 20
-355.5195737844647
 30
0.0
 42
-0.414246239815031
  0
SEQEND
  5
B8
  8
PREDEFINITO
 62
     7
  0
POLYLINE
  5
B9
  8
PREDEFINITO
 62
     7
 66
     1
 10
0.0
 20
0.0
 30
0.0
 70
     1
  0
VERTEX
  5
BA
  8
PREDEFINITO
 62
     7
 10
356.3555088888889
 20
-357.0195848955759
 30
0.0
 42
-2.41440403108719
  0
VERTEX
  5
BB
  8
PREDEFINITO
 62
     7
 10
354.8554977777778
 20
-355.5195737844647
 30
0.0
 42
-0.4142462398150598
  0
SEQEND
  5
BC
  8
PREDEFINITO
 62
     7
  0
POLYLINE
  5
BD
  8
PREDEFINITO
 62
     7
 66
     1
 10
0.0
 20
0.0
 30
0.0
 70
     1
  0
VERTEX
  5
BE
  8
PREDEFINITO
 62
     7
 10
374.3554305555555
 20
-357.0195848955759
 30
0.0
 42
-2.414404031087283
  0
VERTEX
  5
BF
  8
PREDEFINITO
 62
     7
 10
372.8554194444444
 20
-355.5195737844647
 30
0.0
 42
-0.4142462398150565
  0
SEQEND
  5
C0
  8
PREDEFINITO
 62
     7
  0
POLYLINE
  5
C1
  8
PREDEFINITO
 62
     7
 66
     1
 10
0.0
 20
0.0
 30
0.0
 70
     1
  0
VERTEX
  5
C2
  8
PREDEFINITO
 62
     7
 10
368.3554566666667
 20
-363.0195587844648
 30
0.0
 42
-2.414404031087001
  0
VERTEX
  5
C3
  8
PREDEFINITO
 62
     7
 10
366.8554455555555
 20
-361.5195476733539
 30
0.0
 42
-0.4142462398150663
  0
SEQEND
  5
C4
  8
PREDEFINITO
 62
     7
  0
POLYLINE
  5
C5
  8
PREDEFINITO
 62
     7
 66
     1
 10
0.0
 20
0.0
 30
0.0
 70
     1
  0
VERTEX
  5
C6
  8
PREDEFINITO
 62
     7
 10
362.3554827777778
 20
-363.0195587844648
 30
0.0
 42
-2.414404031087043
  0
VERTEX
  5
C7
  8
PREDEFINITO
 62
     7
 10
360.8554716666666
 20
-361.5195476733536
 30
0.0
 42
-0.4142462398150547
  0
SEQEND
  5
C8
  8
PREDEFINITO
 62
     7
  0
POLYLINE
  5
C9
  8
PREDEFINITO
 62
     7
 66
     1
 10
0.0
 20
0.0
 30
0.0
 70
     1
  0
VERTEX
  5
CA
  8
PREDEFINITO
 62
     7
 10
374.3554305555555
 20
-363.0195587844648
 30
0.0
 42
-2.414404031087394
  0
VERTEX
  5
CB
  8
PREDEFINITO
 62
     7
 10
372.8554194444444
 20
-361.5195476733535
 30
0.0
 42
-0.4142462398150338
  0
SEQEND
  5
CC
  8
PREDEFINITO
 62
     7
  0
POLYLINE
  5
CD
  8
PREDEFINITO
 62
     7
 66
     1
 10
0.0
 20
0.0
 30
0.0
 70
     1
  0
VERTEX
  5
CE
  8
PREDEFINITO
 62
     7
 10
380.3554397222222
 20
-357.0195848955759
 30
0.0
 42
-2.41440403108743
  0
VERTEX
  5
CF
  8
PREDEFINITO
 62
     7
 10
378.8554286111111
 20
-355.5195737844647
 30
0.0
 42
-0.4142462398150389
  0
SEQEND
  5
D0
  8
PREDEFINITO
 62
     7
  0
POLYLINE
  5
D1
  8
PREDEFINITO
 62
     7
 66
     1
 10
0.0
 20
0.0
 30
0.0
 70
     1
  0
VERTEX
  5
D2
  8
PREDEFINITO
 62
     7
 10
368.3554566666667
 20
-333.0196893400204
 30
0.0
 42
-2.41440403108721
  0
VERTEX
  5
D3
  8
PREDEFINITO
 62
     7
 10
366.8554455555555
 20
-331.5196782289094
 30
0.0
 42
-0.4142462398150834
  0
SEQEND
  5
D4
  8
PREDEFINITO
 62
     7
  0
POLYLINE
  5
D5
  8
PREDEFINITO
 62
     7
 66
     1
 10
0.0
 20
0.0
 30
0.0
 70
     1
  0
VERTEX
  5
D6
  8
PREDEFINITO
 62
     7
 10
368.3554566666667
 20
-327.0197154511314
 30
0.0
 42
-2.414404031086978
  0
VERTEX
  5
D7
  8
PREDEFINITO
 62
     7
 10
366.8554455555555
 20
-325.5197043400204
 30
0.0
 42
-0.4142462398150834
  0
SEQEND
  5
D8
  8
PREDEFINITO
 62
     7
  0
POLYLINE
  5
D9
  8
PREDEFINITO
 62
     7
 66
     1
 10
0.0
 20
0.0
 30
0.0
 70
     1
  0
VERTEX
  5
DA
  8
PREDEFINITO
 62
     7
 10
368.3554566666667
 20
-320.9708112844648
 30
0.0
 42
-2.414404031086971
  0
VERTEX
  5
DB
  8
PREDEFINITO
 62
     7
 10
366.8554455555555
 20
-319.4708001733538
 30
0.0
 42
-0.4142462398150834
  0
SEQEND
  5
DC
  8
PREDEFINITO
 62
     7
  0
POLYLINE
  5
DD
  8
PREDEFINITO
 62
     7
 66
     1
 10
0.0
 20
0.0
 30
0.0
 70
     1
  0
VERTEX
  5
DE
  8
PREDEFINITO
 62
     7
 10
368.3554566666667
 20
-314.9708373955759
 30
0.0
 42
-2.414404031087172
  0
VERTEX
  5
DF
  8
PREDEFINITO
 62
     7
 10
366.8554455555555
 20
-313.4708262844647
 30
0.0
 42
-0.4142462398150134
  0
SEQEND
  5
E0
  8
PREDEFINITO
 62
     7
  0
ENDSEC
  0
EOF
